<svg viewBox="0 0 24 24" xmlns="http://www.w3.org/2000/svg" xmlns:xlink="http://www.w3.org/1999/xlink" width="24.000000" height="24.000000" fill="none">
	<rect id="ri:calendar-line" width="24.000000" height="24.000000" x="0.000000" y="0.000000" fill="rgb(255,255,255)" fill-opacity="0" />
	<path id="Vector" d="M9 1L9 3L15 3L15 1L17 1L17 3L21 3C21.2652 3 21.5196 3.10536 21.7071 3.29289C21.8946 3.48043 22 3.73478 22 4L22 20C22 20.2652 21.8946 20.5196 21.7071 20.7071C21.5196 20.8946 21.2652 21 21 21L3 21C2.73478 21 2.48043 20.8946 2.29289 20.7071C2.10536 20.5196 2 20.2652 2 20L2 4C2 3.73478 2.10536 3.48043 2.29289 3.29289C2.48043 3.10536 2.73478 3 3 3L7 3L7 1L9 1ZM20 11L4 11L4 19L20 19L20 11ZM7 5L4 5L4 9L20 9L20 5L17 5L17 7L15 7L15 5L9 5L9 7L7 7L7 5Z" fill="rgb(98,115,130)" fill-rule="nonzero" />
</svg>
